<svg width="1em" height="1em" viewBox="0 0 333 334" fill="currentColor" xmlns="http://www.w3.org/2000/svg" font-size="160"><g clip-path="url(#icon_logo_svg__a)"><path fill-rule="evenodd" clip-rule="evenodd" d="M151.022 201.624c-3.7 1.6-7.7 2.5-11.9 2.5-9.6.1-17.3-3.1-22.8-9.4-5.6-6.3-8.5-15.7-8.6-27.9-.1-5.2.6-10.2 2.1-14.6 1.4-4.5 3.5-8.4 6.2-11.6 2.7-3.2 5.9-5.8 9.7-7.6 3.7-1.8 7.9-2.8 12.5-2.8 4.4-.1 8.6.8 12.4 2.5 3.8 1.7 7.1 4.2 9.9 7.4 2.8 3.2 4.9 7 6.5 11.5 1.5 4.4 2.3 9.4 2.4 14.8.1 6-.7 11.4-2.2 16-1.6 4.6-3.8 8.6-6.5 11.8-2.7 3.3-6 5.7-9.7 7.4Zm-27.3-23.1c.6 3.4 1.5 6.5 2.8 9 1.2 2.4 2.9 4.4 4.9 5.8 1.9 1.4 4.5 2.1 7.6 2.1 2.4 0 4.5-.7 6.3-2.2 1.9-1.6 3.6-3.7 4.9-6.2 1.4-2.6 2.4-5.7 3.1-9.1.7-3.5 1-7.1 1-10.9 0-3.7-.4-7.4-1-10.9-.6-3.4-1.6-6.5-2.9-9.1-1.3-2.5-2.9-4.5-4.9-6-1.9-1.4-4.3-2.1-7.2-2.1-2.7 0-5 .8-6.9 2.3-2 1.6-3.6 3.7-4.9 6.3-1.3 2.7-2.3 5.8-2.9 9.2-.7 3.5-.9 7.1-.9 10.7.1 3.8.4 7.6 1 11.1Zm-83.1-105.5c2.5 3.5-2.5 6.1-6.9 4.8-3.7-1.1-4.3-4.9-3.7-6.7.894-3.16 3.53-5.396 6.975-8.318 2.334-1.979 5.039-4.273 7.825-7.382a336.524 336.524 0 0 0 6.253-7.079c1.434-1.658 2.867-3.316 4.847-5.521 4.4-4.9 12.5-4.9 15.3-4.4 1.1.1 2.3.5 3.4 1 1.8.8 3.5 2 5.2 3.5 1.7 1.5 3 3.2 3.9 4.8.9 1.7 1.5 3.3 1.7 5 0 .3.025.625.05.95.025.325.05.65.05.95v.8c.1 2 1.1 2.8 4.4 2.2h.1c1.6-.4 3.2-.5 4.7-.5 2.1.1 4.3.6 6.4 1.5h.1c2.1.9 4.1 2.3 6.2 4.2 2.8 2.5 4.7 5.1 5.8 7.7 1.1 2.6 2 6.6.6 10.8-2.1 6.3-6.6 10.7-14 16.8-5.5 4.5-9.7 12.1-9.7 12.1-1.6 2.3-5.2 6.1-8.2 3.9-2.117-1.636-1.086-3.642.777-7.266l.223-.434c2.1-4.1-.3-7.3-1.4-8.3 0 0-24.2-22-30.9-27.9-6.7-5.9-12.1-.1-10 2.8Zm42.3-2.7-1.5 1.2c-3 2.8-4.1 4.5-.3 7.9l4.1 3.7c1.472 1.39 2.81 2.513 3.96 3.478l.74.622c2.1 1.6 5.1 3.2 7.7 1.4.197-.263.437-.483.692-.716.133-.121.27-.247.408-.384l1.1-1.1.2-.2c1.9-2.1 2.6-4 2.2-6-.5-2.1-2.2-4.5-5.1-7.1-2.1-1.9-4.1-3.2-5.8-3.8-1.6-.6-3.1-.8-4.4-.6-1.4.2-2.7.7-4 1.6Zm-25.9-17.1-.1.2c-1.3 1.9 0 4.1 1.6 5.5l9.3 8.4c1.3 1.2 3 1.9 4.5.7.4-.6.8-1.1 1.2-1.6.079-.119.142-.237.202-.349.092-.172.177-.33.298-.451.06-.09.12-.17.176-.247.134-.181.254-.343.324-.553.6-1.1 1-2.3 1-3.5 0-1.2-.2-2.4-.9-3.7-.7-1.3-1.9-2.8-3.7-4.4-1.6-1.4-3-2.4-4.4-3-1.1-.5-2.1-.8-3-.7-1.6.1-3.2.8-4.8 2.1-.2.2-.5.5-1 .9-.205.136-.363.32-.507.486-.067.077-.13.15-.193.214Zm61.8 195.5c3.8 2.2 7.9 3.8 12.2 5.4 3.5 1.3 3 3.7 2.6 4.9-.5 1.1-1.8 3.3-6.1 2.2-4.3-1.1-6.9-.7-10.5 5.1-2.459 3.961-8.975 15.058-14.07 23.735-2.366 4.028-4.425 7.536-5.63 9.565-3.47 5.782-1.162 7.687.798 9.304.243.201.481.397.702.596 2 1.8 3 3.9 1.6 5.8-1.4 2-4.6 1.5-5.5 1-1.015-.609-3.292-2.222-5.51-3.794-2.154-1.526-4.253-3.014-5.09-3.506-.736-.409-2.543-1.32-4.53-2.322-2.873-1.448-6.124-3.087-7.07-3.678-1-.6-3.3-3.3-1.8-5.7 1.5-2.4 4.3-1.7 5.3-1.3 1.5.7 6.2 2.4 9.7-3.5 3.5-5.8 16.6-28 19.7-33.3 3.2-5.3 2.7-8.2-.4-11.9-3.1-3.8-5.2-5.1-9.8-2.2-3.03 1.869-14.492 9.596-24 16.004-5.242 3.534-9.89 6.667-12.2 8.196-6.444 4.263-3.748 8.427-2.629 10.155l.029.045c1.2 1.8 1.6 3.5.2 5-1.4 1.5-4.7 1.3-6.4-1.3-.787-1.21-3.331-4.252-5.683-7.063-1.535-1.834-2.988-3.571-3.817-4.637-1.081-1.391-3.064-3.47-4.897-5.393-1.727-1.811-3.321-3.483-3.903-4.307-1-1.4-2-4.3.5-5.8 2.5-1.4 5.4.1 6.1.9 2.5 2.5 4.8 4.8 9.1 2.2 4.3-2.6 7.7-4.8 7.7-4.8 4.6-3 6.4-7.2 3.2-12l-6.6-10c-2.6-4-5.8-5.1-8.8-3.3-1.906 1.134-3.441 1.877-4.998 2.631-1.874.908-3.78 1.83-6.402 3.469-4.323 2.702-3.536 5.89-2.972 8.177.063.253.122.494.172.723.3 1.9.4 3.5-2 4.5-2.5 1-4.5-1-5.1-1.9-.655-1.108-1.385-2.951-2.23-5.082-.833-2.102-1.778-4.484-2.87-6.718-2.2-4.5-5.4-10.8-6.5-12.5-1.1-1.8-.6-4.7 1.4-5.2s3.4-.2 5.6 3.1c2.8 4.1 5.5 3.4 10.2.8 1.21-.67 3.727-2.023 6.928-3.742 9.225-4.959 24.13-12.969 29.772-16.458 4-2.5 4.5-5.8 3.6-8.3-.8-2.5.3-5.5 3.1-5.7 2.8-.2 3.9 1.9 4.1 2.9.038.276.074.572.112.887.268 2.191.652 5.329 2.488 9.613 2.1 4.9 6.1 11.1 6.1 11.1s1.7 2.7-.6 4.3c-2.2 1.6-5.3-.6-5.8-1.3-1-1.2-3.6-2.8-7.9-.5-1.325.717-2.954 1.8-4.601 2.895-1.339.89-2.69 1.788-3.9 2.505-3.4 2.1-4.7 3.7-1.5 8.5l6.8 10.3c3.4 5.1 6.4 4.6 9.2 2.8 2.8-1.7 5.9-3.8 9.5-6.5 3.6-2.7 2.4-5.6 1.7-6.8-.6-1-2.4-4-.6-5.8 1.8-1.8 4.6-.6 5.2.3.21.313.536.822.939 1.45 1.527 2.384 4.158 6.488 5.662 8.15 3.5 3.9 9 7.9 9.5 8.2.512.342 1.55 1.22 2.851 2.321 2.504 2.121 5.982 5.065 8.549 6.579Zm39.4-210c1.5 4.2 2.4 8.2 2.8 11.8.3 3.8 0 7.3-.8 10.3-1 3.1-2.8 5.9-5.4 8.2-2.5 2.3-5.9 4.2-10.1 5.6-3.9 1.4-7.6 2.1-10.9 2.2-3.5.1-6.7-.6-9.5-2-2.5-1.4-4.9-3.4-6.9-6-.1-.15-.2-.275-.3-.4-.1-.125-.2-.25-.3-.4-2.1-2.9-3.9-6.6-5.5-11.1l-9.2-26.1-.6-1.5c-2-4.4-4.5-5-8.3-4.3-4.1.8-5.8.2-6.7-2.6-.6-2 1.8-4.2 4.5-4.9.535-.178 1.343-.436 2.36-.76a423.445 423.445 0 0 0 9.84-3.24c4.107-1.494 6.541-2.653 8.885-3.768.795-.379 1.579-.752 2.415-1.132 3.3-1.5 5.6-.2 6.3 1.5.7 1.7-.6 4.5-2.8 5.6l-.338.168c-2.182 1.078-5.112 2.527-4.162 6.232.3 1.3.8 2.8 1.4 4.6l8.9 25.5c.8 2.4 1.9 4.6 3.2 6.6 1.3 1.9 2.7 3.4 4.3 4.6 1.5 1.1 3.2 1.9 5.1 2.2 1.8.3 3.8.1 6-.6 4.7-1.7 7.8-4.4 9.2-8.1 1.4-3.8.9-9-1.4-15.7 0 0-7.3-20.1-9.1-25.2-1.8-5.1-5-5-7.4-4.7-2.3.3-5.3-.2-6.1-2.4-.8-2.2.2-4.4 3.4-5 1.443-.27 2.723-.358 4.144-.455 1.729-.119 3.666-.251 6.356-.745 4.8-.8 7.6-1.4 10.7-2.4 2.8-.9 5.3.1 5.6 2.7.3 2.5-1.3 3.8-3.4 4.6l-.372.133c-2.226.795-5.557 1.984-4.328 5.767 1.3 4.1 8.5 25.2 8.5 25.2Zm144 30.7c1.4 2.2 1.9 4.7 2.1 7.2.1 2.5-.3 5.1-1.4 7.8-.3.7-.6 1.299-.899 1.899h-.001c-1.1 1.9-2.6 3.8-4.6 5.6-3 2.7-6 4.5-9 5.3-2.9.8-5.9.9-8.8.2-2.8-.6-5.6-1.9-8.3-3.8-6.3-4.3-9.8-4.3-13-1.4-2.6 2.4-5.1 4.7-5.1 4.7-1.5 1.3-4.3 4.201-2.6 7.401.8 1.7 1.9 4.5 2.1 6.6.1 2.1-.7 3.6-1.7 4-2.5 1.1-4.3 0-5.8-2.1-.646-.952-1.095-1.8-1.56-2.677-.904-1.704-1.866-3.519-4.44-6.423-1.819-2.054-4.017-3.832-6.149-5.558-1.501-1.214-2.97-2.403-4.251-3.642-.898-.87-1.687-1.696-2.457-2.503-1.887-1.979-3.66-3.837-6.643-5.897-2.624-1.77-5.137-2.72-7.106-3.465-1.257-.476-2.293-.868-2.994-1.335-2.4-1.5-3.3-3.3-2-5.5 1.191-2.016 3.055-1.597 5.821-.974l.779.174c3.282.656 3.871-1.313 4.585-3.698.156-.522.318-1.064.515-1.602.555-1.514 1.39-4.556 2.416-8.291 1.006-3.666 2.196-7.999 3.484-12.21 1.4-4.7.3-4.9-2.4-1.2-5.5 7.4-12.5 16.9-12.5 16.9-1.5 1.9-3 4.1-4.5 6.4 0 0-.2.3-.5.8-5 7.2-10.3 4.2-11-3.9-.266-3.55-.611-7.847-.965-12.256-.444-5.526-.901-11.226-1.235-15.843-.5-6-1.8-5.9-3.2-1a849.013 849.013 0 0 1-2.787 9.608c-1.141 3.87-2.077 7.049-2.713 9.592-1.1 4.3.1 6.1 3.5 7.3 3.5 1.3 5.5 3.3 4.3 6-1.178 2.771-5.044 1.99-9.537 1.083-1.991-.402-4.105-.83-6.163-.983-1.531-.114-3.172-.13-4.797-.144-5.482-.05-10.772-.099-11.003-3.956-.241-4.014 3.965-4.29 7.185-4.501.791-.052 1.523-.1 2.115-.2 3-.5 5.3-2.8 6.5-6.2 1.2-3.5 9.7-33.4 11.6-40.2 1.8-6.8-6.3-8.8-7.7-5.8-1.8 3.9-6.6.9-7.6-3.6-.8-3.7 2.1-6.3 4.1-6.6 3.524-.556 6.934.379 10.868 1.457 2.428.666 5.055 1.386 8.032 1.844 4.841.745 8.718 1.374 11.442 1.816 1.665.27 2.899.47 3.658.584 3.6.5 4.9 2 4.5 4.3-.376 2.162-3.493 2.38-4.944 2.481l-.256.019c-3.6.3-4.7 3.6-4.3 9 .329 5.273.789 11.503 1.208 17.17.216 2.93.422 5.71.592 8.13.4 4.9 2.1 6.1 4.8 2.4 4.4-6 11.3-15.4 16.4-22.3 3.373-4.626 2.102-5.723-.68-8.123l-.32-.277c-2-1.7-3.2-3-2.3-5.3.8-2.3 4.3-1.4 6.1-.3.523.31 1.008.602 1.479.885 2.408 1.447 4.42 2.656 9.021 4.915l1.601.788c4.601 2.266 6.925 3.41 9.899 4.312 3.3 1.1 4.7 3.2 3.6 5.5s-3.2 2.3-5.9 1.5c-4.2-1.3-5.4-.8-7.3 5.6-1.9 6.4-10.8 36.8-10.8 36.8-.046.171-.098.36-.155.563-.799 2.88-2.428 8.754.655 11.837 4.1 4.1 9.7 2.3 13.4-1.1 2.298-2.056 10.01-9.16 17.029-15.627a5019.16 5019.16 0 0 1 11.171-10.273c5.8-5.4 0-11-2.9-9.3-3.6 2.2-5.9-3-4.2-7.3 1.4-3.5 5.2-3.8 7.1-3.1 3.213 1.246 5.695 4.641 8.574 8.58 1.511 2.068 3.132 4.285 5.026 6.42 2.307 2.6 4.667 4.85 6.843 6.923 3.013 2.87 5.673 5.406 7.357 8.077Zm-9.8 7.2c.6-1 .8-1.7.9-2.3.2-1.6-.4-3.4-2.1-5.5-.05-.05-.1-.125-.15-.2-.05-.075-.1-.15-.15-.2-.1-.15-.225-.275-.35-.4-.125-.125-.25-.25-.35-.4-1.7-1.5-4.2-1-6.3.9-.903.824-2.113 1.94-3.444 3.168-2.061 1.902-4.412 4.07-6.356 5.832-2 1.9-3 4.2-2.1 5.9.8.8 1.6 1.4 2.3 1.9.4.2.8.4 1.1.7 1.1.6 2.2 1 3.2 1 1.3 0 2.5-.3 3.9-1 1.5-.8 3.2-2.1 5.1-3.8 2.6-2.3 4-4.2 4.8-5.6Zm-121.6 230c2.5.5 3.1 3.8 2.4 7.5-.8 4.1-.9 10.9-.9 13.8.4 3.3-.4 4.8-2.8 5.2-2.159.332-3.767-.991-4.88-1.908-.227-.187-.433-.357-.62-.492-1.321-.979-3.049-.569-5.593.035-2.657.63-6.204 1.471-11.107 1.165-9.6-.6-18.6-4.6-23.5-11.3-4.8-6.7-6.9-15.8-6.1-27.2.4-6 1.6-11.4 3.5-15.9 1.9-4.6 4.5-8.4 7.6-11.4 3.1-3 6.8-5.3 10.9-6.6 4.1-1.3 8.5-1.8 13.1-1.5 2.739.196 5.573 1.157 11.217 3.07l.383.13c3.569 1.21 4.906.517 6.114-.109.788-.408 1.522-.789 2.786-.591 2.2.4 3.1 2.1 2.5 5l-.072.338c-.575 2.674-1.124 5.227-1.028 9.162.03 1.159.095 2.203.156 3.183.145 2.315.266 4.268-.156 6.517-.5 2.7-2.7 4.9-6.5 4.2-4.5-.8-7.3-5.2-3.7-7.5 2.7-1.8 1.9-6.4-1.9-10.1-2.7-2.6-6.2-4.1-10.5-4.4-3.4-.2-6.3.4-8.5 1.8-2.3 1.4-4.2 3.5-5.7 6-1.5 2.6-2.6 5.6-3.4 8.8-.8 3.4-1.3 6.7-1.5 9.9-.2 3.5-.1 7.1.3 10.7.4 3.5 1.3 6.7 2.5 9.5 1.2 2.7 2.8 5 4.9 6.8 2 1.8 4.6 2.8 7.7 3 2.6.2 7.6.2 11.1-2.3 3.6-2.5 5.3-7.2 5.8-9.8.6-3.1 2.7-5.3 5.5-4.7Zm48.8-170.3c-.2 3.1-.4 6.2 0 8.8.023.168.052.35.081.543.361 2.333.969 6.257-4.481 6.257-5.8.1-5.7-3.4-4.1-4.8 2.2-1.8 1.8-4.5.2-5.9-1.2-1.2-4.1-1.3-8.6-1.3-8.4.1-10.2 3.2-10.1 8.4 0 .965.024 2.07.048 3.213a177.8 177.8 0 0 1 .052 3.687c0 3.5 1.2 6.1 4.4 6.1 3.2.1 4-2.1 4.1-2.8.075-.412.094-.95.115-1.535.034-.978.073-2.089.385-2.965.4-1.4 1.5-2.7 3.7-2.7 2.2.1 3.1 2.2 3 4.6-.035.841-.131 1.695-.242 2.673-.205 1.812-.458 4.05-.458 7.427 0 3.096.284 5.661.514 7.736.156 1.409.286 2.593.286 3.564 0 1.1-.8 3.2-3.2 3.2-2.4 0-3.4-1.9-3.7-3.5-.2-1.8-.8-6.3-3.4-6.4-3.1-.2-5 .3-5 6.2v12.6c-.1 2.8.6 6.1 4.7 6.4 2.9.2 5.2 1.7 5.2 3.6 0 2.1-1 3.8-4.1 3.6-1.251-.085-2.302-.158-3.21-.221-4.459-.31-5.452-.379-9.69-.379-4.546 0-8.895.396-11.12.598-.515.047-.916.083-1.18.102-3.3.3-5.8-.9-5.6-3.8.2-1.9 2-3.5 5.1-3.5 3.1 0 6.1-1.9 6.1-7 .1-7.9 0-33.8-.3-42.5-.3-8.7-5.4-8.5-6-5-.7 4.2-6.2 2.6-8.3-1.5-1.8-3.3.4-6.4 2.2-7.4 3.002-1.626 7.919-1.179 13.31-.69 3.23.294 6.631.602 9.89.49 3.807-.138 8.013-.275 11.925-.403 4.617-.151 8.823-.289 11.475-.397 5-.2 6.2 1.8 6 4.9Zm84.9 95.9c3.1 2.6 4.5 3.7 7 5.1 3.3 1.8 4.1 3.9 1.6 8-1.6 2.8-10.7 15.2-15.1 20.5-4.4 5.3-15.2 18.4-17.2 21.1-1.8 2.5-5.1 1.7-6.2.5-1.6-1.7-.9-3.3.7-5.9 2.1-3.3 2.6-5.1-1.1-8.2-3.6-3.1-30-26.6-30-26.6s-2.1-1.7-2.8-2.3c-4.1-2.8-6.6-1.1-10.5 1.8-3.9 2.9-4.6 4.5-5.3 8.3-.8 4.1-2 13.2-2.8 19.3-.762 5.624 1.019 6.705 4.305 8.699l.495.301c3.7 2.2 17.5 10.3 21.3 12.2 3.7 1.9 7.7 3.5 9.7 1.9 2-1.6 4.2-1.3 5.1-.2.9 1.1 1.5 2.6-1.3 4.6-1.629 1.164-3.63 2.158-5.925 3.298-1.65.82-3.451 1.715-5.375 2.802-2.056 1.188-4.029 2.523-5.823 3.736-2.132 1.442-4.01 2.712-5.477 3.364-2.7 1.2-4.1 1-4.9-.3-.9-1.5-.1-3.2 2.4-4.9 3.064-2.106.445-3.846-2.68-5.921l-.42-.279c-1.707-1.138-3.388-2.223-4.793-3.13-1.31-.845-2.379-1.536-3.007-1.97-1.3-.9-2.8-1.8-4.2-2.6a3.132 3.132 0 0 0-.425-.222 3.585 3.585 0 0 1-.675-.378l-1.8-.9c-3.9-1.4-5.2 1.8-3.7 5.8 0 0 1 3.3 3.3 9.8 2.021 5.621 3.501 5.302 6.135 4.735.365-.079.752-.162 1.165-.235 1.7-.3 4-.6 4.7 1.5.6 2.1 0 3.5-2.9 4.2l-.183.044c-2.792.674-4.587 1.107-12.417 3.456-1.955.626-3.834 1.313-5.618 1.965-2.779 1.016-5.328 1.948-7.582 2.435-2.1.4-3.4-.3-4-2.1-.5-1.8.7-3.1 3.6-4.4 4.2-1.8 4.7-2.6 2.9-8.4-1.9-5.7-12.3-35.8-14.1-41-1.786-5.161-3.572-5.003-6.922-4.707l-.078.007c-3.4.2-4.8-.9-5-3.5-.2-2.6 2.7-3.4 3.7-3.6.32-.056.673-.115 1.058-.179 2.388-.401 5.967-1.001 9.842-2.121 4.5-1.3 7.2-2.4 10.1-3.8 2.9-1.3 4.3.4 4.8 2.3.6 1.9-.7 3.2-2.4 4.1-.228.121-.467.233-.706.345-1.548.724-3.133 1.465-2.094 4.755.999 3.162 3.036 8.61 4.441 12.366.284.758.541 1.447.759 2.034 1.6 4.3 3.4 3.7 4.7-1.9.8-3.4 2.8-13.3 3.6-19.2.3-2.6-.4-3.7-2.8-2.7-2.8 1.2-4-.7-4.5-1.9-.5-1.3 0-3.1 2.2-4.1.525-.249 1.21-.535 1.997-.865 2.06-.862 4.815-2.015 7.203-3.535 2.736-1.741 6.915-5.75 10.429-9.121.725-.695 1.422-1.364 2.071-1.979 3.8-3.7 6.8-6.8 10.1-11 1.708-2.174 3.015-4.642 4.293-7.059 1.192-2.252 2.36-4.459 3.807-6.341 3-4 5.3-3.6 7.6-1.5s4.5 4.1 6.8 5.5c.163.103.345.212.538.328 2.058 1.234 5.445 3.267 2.062 7.472-3.7 4.5-6.4 2.2-6.4.1 0-2.8-2.3-4.1-4.4-3.8-1.7.2-3.7 2.3-6.5 5.8-5.3 6.6-2.3 10 1.8 13.3.984.799 2.535 1.977 4.002 3.09a299.31 299.31 0 0 1 2.498 1.91c2.7 2.1 5.5 2.9 7.5.4s.8-4.5.4-5c-.257-.294-.635-.642-1.051-1.024-.716-.658-1.542-1.417-2.049-2.176-.7-1.2-1.1-2.9.3-4.6 1.4-1.7 3.6-1 5.4.6.606.534 1.199 1.144 1.892 1.858 1.252 1.29 2.833 2.917 5.408 5.042 2.487 2.052 4.704 3.524 6.481 4.704 1.082.718 2.001 1.329 2.719 1.896.9.8 2 2.7.5 4.6-1.6 1.9-3.7 1.5-5.1.7-1.5-1-5.4-3.3-7.1-1.4-2 2.3-2.9 4 1.7 7.8 3.1 2.6 6.2 5 8.9 6.7 3 1.8 7.1 1.5 11.1-3.8s5.5-11 5.3-13.2c-.3-2.9-3.3-6.7-4.7-8.1-.199-.1-.399-.3-.599-.5h-.001c-1-.7-2.1-1-3.2-.6-4 1.3-5.7-3.7-3.4-7.7 1.9-3.4 5-3.7 7.4-2.4 1.964 1.122 3.386 2.44 5.095 4.025.729.675 1.509 1.398 2.405 2.175Zm18.8-41.5c.8-3.5 3.3-4.2 4.9-3.8 1.6.4 3 2.2 2.7 4.3-.083.623-.459 1.903-.922 3.473-.65 2.208-1.468 4.989-1.878 7.327-.7 4-1.1 7-1.4 10-.3 3-2.4 4.3-4.5 3.9-2-.4-3.1-2-3.2-4.3-.03-.352-.03-.734-.031-1.134 0-2.214-.002-4.965-5.169-6.066-4.756-1.014-27.991-5.371-39.232-7.478-3.176-.596-5.395-1.012-5.968-1.122-2.6-.5-3.2 1.7-.8 3.1 3.7 2.2.7 7-3.8 7.8-3.8.7-6.4-1.6-6.9-3.6-.669-2.801.404-5.565 1.594-8.631.764-1.968 1.576-4.062 2.006-6.369 1.013-4.892 1.242-8.076 1.409-10.393.031-.431.06-.831.091-1.207.1-2.5 1.1-4.8 3.4-4.5 2.3.3 3 2.6 3 4.6 0 1.8 1 3.2 4.6 1.2 6.3-3.4 26.4-14.5 29.4-16.3 3-1.8 4-4.4-1.2-5l-3.317-.385c-6.829-.795-18.733-2.18-22.583-2.515-4.5-.5-5.9 1.2-6.5 4.8-.6 3.6-2.3 5.9-5.1 5.3-2.948-.617-2.887-4.479-2.816-9.006.033-2.075.068-4.289-.184-6.394-.175-1.471-.452-3.019-.726-4.553-.976-5.454-1.92-10.732 1.826-11.747 3.816-1.034 4.852 2.926 5.668 6.05.211.805.407 1.555.632 2.15 1.1 2.8 2.4 4.7 7.3 5.2s33.3 3.3 42 4.1c8.7.8 7.4-6.6 3.9-6.7-4.2-.1-3.4-5.7.3-8.4 3.1-2.2 6.5-.5 7.7 1.1 2.415 3.22 2.367 7.35 2.324 11.019-.016 1.345-.031 2.628.076 3.781.065.553.151 1.119.238 1.694.59 3.895 1.239 8.182-4.338 11.406-5.4 3.1-38.6 21.6-41.7 23.3-4.5 2.4-2.2 3.2.5 3.7 1.507.269 7.476 1.349 13.446 2.43 5.122.927 10.246 1.854 12.554 2.27 4.9.9 9.5 1.2 10.7-4.4Zm-291.4 2.4c.2 2.6-2.7 4.3-6.5 4.8-4.2.6-11.5 3.3-14.1 4.6-3.1 1.6-4.9 1.2-6-1-.979-1.958-.16-4.05.392-5.46.124-.318.235-.601.308-.84 1.22-3.272-.112-6.728-1.83-11.187-1.382-3.583-3.012-7.812-3.77-13.113-1.3-10 .3-21.2 6.2-27.6 5.8-6.3 14.6-10.1 26-11.4 5.9-.7 11.4-.4 16.1.7 4.8 1.2 8.9 3 12.3 5.6 3.4 2.6 6.1 5.8 8.1 9.6s3.2 8 3.7 12.6c.295 2.747-.085 5.686-.855 11.651l-.044.349c-.484 3.689.385 4.854 1.17 5.907.513.688.99 1.328 1.03 2.593 0 2.1-1.5 3.4-4.2 3.4-.428.015-.85.026-1.269.036-2.326.059-4.612.117-7.831.964-.957.259-1.827.517-2.645.76-2.343.697-4.257 1.266-6.555 1.34-2.6.1-5.1-1.7-5.2-5.6-.1-4.7 3.7-8.4 6.5-5.3 2.2 2.4 6.4.5 9.2-3.9 2-3.1 2.8-6.9 2.3-11.2-.4-3.4-1.4-6.1-3.2-8-1.9-2.1-4.1-3.6-6.8-4.6-2.8-1.1-5.9-1.7-9.1-1.8-3.4-.1-6.7 0-9.9.4-3.5.4-6.6 1.2-10 2.3-3.4 1.1-6.4 2.6-9 4.4-2.5 1.7-4.5 3.9-5.9 6.4-2 3.4-2.4 9.1-1.7 13.9.7 4.8 2.8 9.7 6.3 12.4 3.4 2.7 8.1 2.9 10.7 2.5 3.1-.4 5.8.9 6.1 3.8Z"></path></g><defs><clipPath id="icon_logo_svg__a"><path d="M0 0h333v334H0z"></path></clipPath></defs></svg>